<svg width="25" height="25" viewBox="0 0 25 25" fill="none" xmlns="http://www.w3.org/2000/svg">
<path d="M12.5 23.4375C9.59919 23.4375 6.8172 22.2852 4.76602 20.234C2.71484 18.1828 1.5625 15.4008 1.5625 12.5C1.5625 9.59919 2.71484 6.8172 4.76602 4.76602C6.8172 2.71484 9.59919 1.5625 12.5 1.5625C15.4008 1.5625 18.1828 2.71484 20.234 4.76602C22.2852 6.8172 23.4375 9.59919 23.4375 12.5C23.4375 15.4008 22.2852 18.1828 20.234 20.234C18.1828 22.2852 15.4008 23.4375 12.5 23.4375ZM12.5 25C15.8152 25 18.9946 23.683 21.3388 21.3388C23.683 18.9946 25 15.8152 25 12.5C25 9.18479 23.683 6.00537 21.3388 3.66117C18.9946 1.31696 15.8152 0 12.5 0C9.18479 0 6.00537 1.31696 3.66117 3.66117C1.31696 6.00537 0 9.18479 0 12.5C0 15.8152 1.31696 18.9946 3.66117 21.3388C6.00537 23.683 9.18479 25 12.5 25V25Z" fill="#9B9B9B"/>
<path d="M6.69537 14.9485C6.8748 14.8449 7.08804 14.8168 7.28818 14.8705C7.48831 14.9241 7.65895 15.055 7.76255 15.2344C8.24242 16.0662 8.93295 16.7569 9.76463 17.2369C10.5963 17.717 11.5398 17.9694 12.5001 17.9688C13.4603 17.9694 14.4038 17.717 15.2355 17.2369C16.0672 16.7569 16.7577 16.0662 17.2376 15.2344C17.2885 15.1449 17.3566 15.0663 17.438 15.0031C17.5195 14.94 17.6126 14.8936 17.712 14.8666C17.8114 14.8396 17.9152 14.8326 18.0174 14.8459C18.1196 14.8591 18.2181 14.8925 18.3073 14.944C18.3966 14.9955 18.4747 15.0642 18.5373 15.146C18.5999 15.2279 18.6457 15.3213 18.672 15.4209C18.6983 15.5205 18.7047 15.6243 18.6908 15.7264C18.6768 15.8285 18.6428 15.9268 18.5907 16.0157C17.9737 17.085 17.0859 17.9729 16.0167 18.5901C14.9475 19.2072 13.7346 19.5319 12.5001 19.5313C11.2655 19.5319 10.0526 19.2072 8.9834 18.5901C7.9142 17.9729 7.02643 17.085 6.40943 16.0157C6.30583 15.8363 6.27776 15.623 6.33138 15.4229C6.38501 15.2228 6.51593 15.0521 6.69537 14.9485ZM10.9376 10.1563C10.9376 11.4501 10.2376 12.5001 9.37505 12.5001C8.51255 12.5001 7.81255 11.4501 7.81255 10.1563C7.81255 8.86258 8.51255 7.81258 9.37505 7.81258C10.2376 7.81258 10.9376 8.86258 10.9376 10.1563ZM17.1876 10.1563C17.1876 11.4501 16.4876 12.5001 15.6251 12.5001C14.7626 12.5001 14.0626 11.4501 14.0626 10.1563C14.0626 8.86258 14.7626 7.81258 15.6251 7.81258C16.4876 7.81258 17.1876 8.86258 17.1876 10.1563Z" fill="#9B9B9B"/>
</svg>
