<svg width="25" height="25" viewBox="0 0 25 25" fill="none" xmlns="http://www.w3.org/2000/svg">
<path d="M7.69237 7.62916V16.6035C7.69237 16.901 7.81393 17.1864 8.03032 17.3968C8.24671 17.6071 8.54019 17.7253 8.84621 17.7253H15.7693C16.0753 17.7253 16.3688 17.6071 16.5852 17.3968C16.8016 17.1864 16.9231 16.901 16.9231 16.6035V10.0646C16.9231 9.91514 16.8924 9.7672 16.8327 9.62946C16.7731 9.49172 16.6858 9.36696 16.5758 9.2625L14.0143 6.82708C13.7987 6.62216 13.5092 6.50741 13.2078 6.50737H8.84621C8.54019 6.50737 8.24671 6.62556 8.03032 6.83594C7.81393 7.04631 7.69237 7.33165 7.69237 7.62916V7.62916Z" stroke="#9B9B9B" stroke-width="1.3414" stroke-linecap="round" stroke-linejoin="round"/>
<path d="M10.577 12.6773H14.0385" stroke="#9B9B9B" stroke-width="1.3414" stroke-linecap="round" stroke-linejoin="round"/>
<path d="M10.577 14.9209H12.3078" stroke="#9B9B9B" stroke-width="1.3414" stroke-linecap="round" stroke-linejoin="round"/>
<path d="M13.4617 6.50739V8.75097C13.4617 9.04849 13.5833 9.33383 13.7997 9.5442C14.0161 9.75458 14.3096 9.87277 14.6156 9.87277H16.9233" stroke="#9B9B9B" stroke-width="1.3414" stroke-linejoin="round"/>
<circle cx="12.5" cy="12.5" r="11.8293" stroke="#9B9B9B" stroke-width="1.3414"/>
</svg>
