<svg width="25" height="25" viewBox="0 0 25 25" fill="none" xmlns="http://www.w3.org/2000/svg">
<circle cx="12.5" cy="12.5" r="11.8293" stroke="#9B9B9B" stroke-width="1.3414"/>
<path d="M6.06664 8.5037C6.06664 7.86493 6.33003 7.25231 6.79887 6.80063C7.26771 6.34895 7.9036 6.0952 8.56664 6.0952H16.0666C16.7297 6.0952 17.3656 6.34895 17.8344 6.80063C18.3033 7.25231 18.5667 7.86493 18.5667 8.5037V15.7292C18.5667 16.368 18.3033 16.9806 17.8344 17.4323C17.3656 17.8839 16.7297 18.1377 16.0666 18.1377H8.56664C7.9036 18.1377 7.26771 17.8839 6.79887 17.4323C6.33003 16.9806 6.06664 16.368 6.06664 15.7292V8.5037Z" stroke="#9B9B9B" stroke-width="1.3414" stroke-linecap="round" stroke-linejoin="round"/>
<path d="M10.1296 11.5144C10.9926 11.5144 11.6921 10.8404 11.6921 10.0091C11.6921 9.17768 10.9926 8.50372 10.1296 8.50372C9.26667 8.50372 8.56711 9.17768 8.56711 10.0091C8.56711 10.8404 9.26667 11.5144 10.1296 11.5144Z" stroke="#9B9B9B" stroke-width="1.3414" stroke-linecap="round" stroke-linejoin="round"/>
<path d="M13.8959 12.4904L8.56711 18.1378H16.1502C16.7912 18.1378 17.406 17.8924 17.8592 17.4558C18.3125 17.0191 18.5671 16.4269 18.5671 15.8093V15.7292C18.5671 15.4486 18.4577 15.3409 18.2609 15.1331L15.7421 12.4868C15.6247 12.3634 15.4819 12.265 15.3228 12.1977C15.1638 12.1305 14.9919 12.0959 14.8182 12.0963C14.6444 12.0966 14.4727 12.1318 14.3139 12.1997C14.1551 12.2676 14.0127 12.3666 13.8959 12.4904V12.4904Z" stroke="#9B9B9B" stroke-width="1.3414" stroke-linecap="round" stroke-linejoin="round"/>
</svg>
