<svg width="25" height="25" viewBox="0 0 25 25" fill="none" xmlns="http://www.w3.org/2000/svg">
<path d="M16.9889 8.01077C16.9256 7.9478 16.8457 7.90421 16.7585 7.88511C16.6713 7.86601 16.5805 7.8722 16.4967 7.90296L6.18418 11.653C6.09524 11.6867 6.01867 11.7467 5.96464 11.825C5.91061 11.9032 5.88167 11.9961 5.88167 12.0912C5.88167 12.1864 5.91061 12.2792 5.96464 12.3575C6.01867 12.4358 6.09524 12.4958 6.18418 12.5295L10.2107 14.1373L13.1826 11.1561L13.8436 11.817L10.8576 14.803L12.4701 18.8295C12.5049 18.9167 12.565 18.9915 12.6427 19.0442C12.7204 19.0968 12.8122 19.1249 12.9061 19.1248C13.0008 19.1229 13.0927 19.0923 13.1697 19.0371C13.2467 18.9818 13.3051 18.9046 13.3373 18.8155L17.0873 8.50296C17.1192 8.42002 17.1269 8.32972 17.1095 8.24258C17.0921 8.15543 17.0502 8.07504 16.9889 8.01077Z" fill="#9B9B9B"/>
<circle cx="12.5" cy="12.5" r="11.494" stroke="#9B9B9B" stroke-width="2.0121"/>
</svg>
