<svg width="31" height="38" viewBox="0 0 31 38" fill="none" xmlns="http://www.w3.org/2000/svg">
<path d="M3.41741 13.9431C3.41519 12.2704 3.72762 10.6138 4.33669 9.06881C4.94576 7.52379 5.83943 6.1209 6.96618 4.94099C8.09292 3.76109 9.43047 2.82751 10.9017 2.19407C12.373 1.56063 13.9488 1.23986 15.5384 1.25024C22.1714 1.30213 27.477 7.10345 27.477 14.1024V15.3534C27.477 21.6675 28.7324 25.3315 29.8382 27.3341C29.9573 27.5481 30.0207 27.7913 30.022 28.0393C30.0232 28.2873 29.9623 28.5312 29.8454 28.7465C29.7284 28.9618 29.5596 29.1409 29.3559 29.2656C29.1522 29.3903 28.9209 29.4563 28.6852 29.457H2.20784C1.97214 29.4563 1.74077 29.3903 1.53707 29.2655C1.33337 29.1408 1.16454 28.9617 1.04762 28.7463C0.930693 28.531 0.869812 28.287 0.871114 28.039C0.872416 27.791 0.935855 27.5477 1.05503 27.3338C2.16137 25.3311 3.4174 21.6672 3.4174 15.3534L3.41741 13.9431Z" stroke="#313131" stroke-width="1.37656" stroke-linecap="round" stroke-linejoin="round"/>
<path d="M10.084 29.457V30.8674C10.084 32.3636 10.6488 33.7985 11.6543 34.8565C12.6598 35.9144 14.0235 36.5088 15.4454 36.5088C16.8674 36.5088 18.2311 35.9144 19.2366 34.8565C20.242 33.7985 20.8069 32.3636 20.8069 30.8674V29.457" stroke="#313131" stroke-width="1.37656" stroke-linecap="round" stroke-linejoin="round"/>
</svg>
