<svg width="53" height="53" viewBox="0 0 53 53" fill="none" xmlns="http://www.w3.org/2000/svg">
<path d="M20.1113 21.6133H33.173" stroke="#313131" stroke-width="1.37656" stroke-linecap="round" stroke-linejoin="round"/>
<path d="M20.1113 28.1523H33.173" stroke="#313131" stroke-width="1.37656" stroke-linecap="round" stroke-linejoin="round"/>
<path d="M31.0658 40.3895L28.0433 45.433C27.8982 45.675 27.693 45.8754 27.4477 46.0144C27.2023 46.1535 26.9252 46.2266 26.6432 46.2266C26.3613 46.2266 26.0842 46.1535 25.8388 46.0144C25.5935 45.8754 25.3883 45.675 25.2432 45.433L22.2207 40.3895C22.0757 40.1474 21.8705 39.9471 21.6251 39.808C21.3798 39.6689 21.1027 39.5958 20.8207 39.5958H8.68349C8.25047 39.5958 7.83518 39.4236 7.52899 39.117C7.2228 38.8105 7.05078 38.3947 7.05078 37.9612V11.8065C7.05078 11.373 7.2228 10.9572 7.52899 10.6507C7.83518 10.3441 8.25047 10.1719 8.68349 10.1719H44.603C45.036 10.1719 45.4513 10.3441 45.7575 10.6507C46.0637 10.9572 46.2357 11.373 46.2357 11.8065V37.9613C46.2357 38.3948 46.0637 38.8106 45.7575 39.1171C45.4513 39.4237 45.036 39.5959 44.603 39.5959L32.4658 39.5958C32.1839 39.5958 31.9067 39.6689 31.6614 39.808C31.416 39.9471 31.2108 40.1474 31.0658 40.3895V40.3895Z" stroke="#313131" stroke-width="1.37656" stroke-linecap="round" stroke-linejoin="round"/>
</svg>
