<svg width="28" height="29" viewBox="0 0 28 29" fill="none" xmlns="http://www.w3.org/2000/svg">
<path d="M5.22671 20.0806C3.95847 17.8403 3.51433 15.1918 3.97767 12.6327C4.44101 10.0735 5.77997 7.77956 7.74312 6.18166C9.70626 4.58376 12.1586 3.79179 14.6395 3.95448C17.1204 4.11716 19.4594 5.22331 21.2171 7.0652C22.9748 8.90709 24.0304 11.358 24.1857 13.9578C24.341 16.5575 23.5852 19.1273 22.0603 21.1844C20.5355 23.2416 18.3464 24.6447 15.9042 25.1302C13.4619 25.6157 10.9345 25.1503 8.7966 23.8214L8.79662 23.8213L5.27109 24.8768C5.12523 24.9205 4.97087 24.9225 4.82402 24.8826C4.67717 24.8427 4.54317 24.7624 4.4359 24.65C4.32864 24.5376 4.25201 24.3972 4.21395 24.2433C4.1759 24.0894 4.17781 23.9277 4.21949 23.7749L5.22678 20.0805L5.22671 20.0806Z" stroke="#9B9B9B" stroke-width="2" stroke-linecap="round" stroke-linejoin="round"/>
<path d="M10.6035 12.8398H17.4086" stroke="#9B9B9B" stroke-width="2" stroke-linecap="round" stroke-linejoin="round"/>
<path d="M10.6035 16.4023H17.4086" stroke="#9B9B9B" stroke-width="2" stroke-linecap="round" stroke-linejoin="round"/>
</svg>
