<svg width="28" height="29" viewBox="0 0 28 29" fill="none" xmlns="http://www.w3.org/2000/svg">
<path d="M4.83044 19.7214C3.5622 17.4811 3.11806 14.8327 3.5814 12.2735C4.04474 9.71432 5.3837 7.4204 7.34684 5.8225C9.30999 4.2246 11.7623 3.43264 14.2432 3.59533C16.7242 3.75801 19.0631 4.86415 20.8208 6.70605C22.5786 8.54794 23.6342 10.9989 23.7894 13.5986C23.9447 16.1984 23.1889 18.7681 21.6641 20.8253C20.1392 22.8824 17.9501 24.2855 15.5079 24.7711C13.0657 25.2566 10.5383 24.7912 8.40033 23.4622L8.40035 23.4621L4.87482 24.5177C4.72896 24.5613 4.5746 24.5633 4.42775 24.5235C4.2809 24.4836 4.1469 24.4033 4.03963 24.2909C3.93236 24.1785 3.85573 24.0381 3.81768 23.8842C3.77963 23.7303 3.78154 23.5685 3.82322 23.4157L4.83051 19.7213L4.83044 19.7214Z" stroke="#313131" stroke-width="2" stroke-linecap="round" stroke-linejoin="round"/>
<path d="M10.2077 12.4792H17.0128" stroke="#313131" stroke-width="2" stroke-linecap="round" stroke-linejoin="round"/>
<path d="M10.2077 16.0447H17.0128" stroke="#313131" stroke-width="2" stroke-linecap="round" stroke-linejoin="round"/>
</svg>
