<svg width="28" height="29" viewBox="0 0 28 29" fill="none" xmlns="http://www.w3.org/2000/svg">
<path d="M13.6102 8.02236V9.8051" stroke="#313131" stroke-width="2" stroke-linecap="round" stroke-linejoin="round"/>
<path d="M13.6102 18.7188V20.5016" stroke="#313131" stroke-width="2" stroke-linecap="round" stroke-linejoin="round"/>
<path d="M13.6103 24.9584C19.2478 24.9584 23.8179 20.1695 23.8179 14.262C23.8179 8.35447 19.2478 3.56549 13.6103 3.56549C7.97272 3.56549 3.40259 8.35447 3.40259 14.262C3.40259 20.1695 7.97272 24.9584 13.6103 24.9584Z" stroke="#313131" stroke-width="2" stroke-linecap="round" stroke-linejoin="round"/>
<path d="M11.0583 18.7188H14.8862C15.4502 18.7188 15.9911 18.4841 16.3899 18.0661C16.7887 17.6482 17.0128 17.0814 17.0128 16.4904C17.0128 15.8994 16.7887 15.3326 16.3899 14.9147C15.9911 14.4967 15.4502 14.262 14.8862 14.262H12.3343C11.7703 14.262 11.2294 14.0272 10.8305 13.6093C10.4317 13.1914 10.2077 12.6246 10.2077 12.0335C10.2077 11.4425 10.4317 10.8757 10.8305 10.4578C11.2294 10.0399 11.7703 9.8051 12.3343 9.8051H16.1621" stroke="#313131" stroke-width="2" stroke-linecap="round" stroke-linejoin="round"/>
</svg>
