<svg width="28" height="30" viewBox="0 0 28 30" fill="none" xmlns="http://www.w3.org/2000/svg">
<path d="M13.6094 8.88281V10.6656" stroke="#9B9B9B" stroke-width="2" stroke-linecap="round" stroke-linejoin="round"/>
<path d="M13.6094 19.5781V21.3609" stroke="#9B9B9B" stroke-width="2" stroke-linecap="round" stroke-linejoin="round"/>
<path d="M13.61 25.8187C19.2476 25.8187 23.8177 21.0298 23.8177 15.1223C23.8177 9.21476 19.2476 4.42578 13.61 4.42578C7.97247 4.42578 3.40234 9.21476 3.40234 15.1223C3.40234 21.0298 7.97247 25.8187 13.61 25.8187Z" stroke="#9B9B9B" stroke-width="2" stroke-linecap="round" stroke-linejoin="round"/>
<path d="M11.0577 19.5778H14.8855C15.4496 19.5778 15.9905 19.343 16.3893 18.9251C16.7881 18.5072 17.0121 17.9404 17.0121 17.3494C17.0121 16.7583 16.7881 16.1915 16.3893 15.7736C15.9905 15.3557 15.4496 15.1209 14.8855 15.1209H12.3336C11.7696 15.1209 11.2287 14.8861 10.8299 14.4682C10.4311 14.0503 10.207 13.4835 10.207 12.8925C10.207 12.3015 10.4311 11.7347 10.8299 11.3168C11.2287 10.8988 11.7696 10.6641 12.3336 10.6641H16.1615" stroke="#9B9B9B" stroke-width="2" stroke-linecap="round" stroke-linejoin="round"/>
</svg>
