<svg width="28" height="31" viewBox="0 0 28 31" fill="none" xmlns="http://www.w3.org/2000/svg">
<path d="M5.79369 11.1634C5.98509 10.7184 6.20838 10.2968 6.46357 9.88698L6.42104 6.84239C6.42104 6.56135 6.52737 6.29202 6.7294 6.10466C7.71826 5.19128 8.84536 4.45355 10.0894 3.96173C10.334 3.86805 10.5998 3.89147 10.8125 4.0437L13.1836 5.61284C13.6302 5.57771 14.0768 5.57771 14.5234 5.61284L16.8945 4.0437C17.1178 3.90318 17.3837 3.86805 17.6282 3.96173C18.8404 4.44184 19.9781 5.15615 20.9882 6.09295C21.1796 6.2686 21.2966 6.54964 21.286 6.83068L21.2434 9.87527C21.4986 10.2851 21.7219 10.7067 21.9133 11.1517L24.327 12.6271C24.5503 12.7676 24.7098 13.0018 24.7523 13.2829C24.9756 14.6764 24.9862 16.1284 24.7523 17.5453C24.7098 17.8263 24.5503 18.0605 24.327 18.2011L21.9133 19.6765C21.7219 20.1215 21.4986 20.5431 21.2434 20.9529L21.286 23.9975C21.286 24.2785 21.1796 24.5479 20.9776 24.7352C19.9887 25.6486 18.8616 26.3863 17.6176 26.8782C17.373 26.9718 17.1072 26.9484 16.8945 26.7962L14.5234 25.2271C14.0768 25.2622 13.6302 25.2622 13.1836 25.2271L10.8125 26.7962C10.5892 26.9367 10.3233 26.9718 10.0788 26.8782C8.86663 26.3981 7.7289 25.6837 6.71876 24.7469C6.52737 24.5713 6.41041 24.2903 6.42104 24.0092L6.46357 20.9646C6.20838 20.5548 5.98509 20.1332 5.79369 19.6882L3.38 18.2128C3.15671 18.0723 2.99722 17.8381 2.95468 17.557C2.73139 16.1635 2.72076 14.7115 2.95468 13.2946C2.99722 13.0135 3.15671 12.7793 3.38 12.6388L5.79369 11.1634Z" stroke="#9B9B9B" stroke-width="2" stroke-miterlimit="10" stroke-linecap="round" stroke-linejoin="round"/>
<path d="M13.8441 21.0463C16.6628 21.0463 18.9479 18.5298 18.9479 15.4255C18.9479 12.3212 16.6628 9.80469 13.8441 9.80469C11.0253 9.80469 8.74023 12.3212 8.74023 15.4255C8.74023 18.5298 11.0253 21.0463 13.8441 21.0463Z" stroke="#9B9B9B" stroke-width="2" stroke-miterlimit="10" stroke-linecap="round" stroke-linejoin="round"/>
</svg>
