<svg width="28" height="30" viewBox="0 0 28 30" fill="none" xmlns="http://www.w3.org/2000/svg">
<path d="M5.56136 10.7262C5.75276 10.2813 5.97605 9.8597 6.23124 9.44985L6.18871 6.40525C6.18871 6.12421 6.29504 5.85488 6.49707 5.66752C7.48593 4.75414 8.61303 4.01642 9.85709 3.5246C10.1017 3.43092 10.3675 3.45434 10.5801 3.60657L12.9513 5.1757C13.3979 5.14057 13.8445 5.14057 14.291 5.1757L16.6622 3.60657C16.8855 3.46605 17.1513 3.43092 17.3959 3.5246C18.608 4.00471 19.7458 4.71901 20.7559 5.65581C20.9473 5.83146 21.0643 6.1125 21.0536 6.39354L21.0111 9.43814C21.2663 9.84799 21.4896 10.2695 21.681 10.7145L24.0947 12.19C24.318 12.3305 24.4775 12.5647 24.52 12.8457C24.7433 14.2392 24.7539 15.6913 24.52 17.1082C24.4775 17.3892 24.318 17.6234 24.0947 17.7639L21.681 19.2394C21.4896 19.6844 21.2663 20.1059 21.0111 20.5158L21.0536 23.5604C21.0536 23.8414 20.9473 24.1107 20.7453 24.2981C19.7564 25.2115 18.6293 25.9492 17.3852 26.441C17.1407 26.5347 16.8749 26.5113 16.6622 26.3591L14.291 24.7899C13.8445 24.8251 13.3979 24.8251 12.9513 24.7899L10.5801 26.3591C10.3568 26.4996 10.091 26.5347 9.84646 26.441C8.6343 25.9609 7.49657 25.2466 6.48643 24.3098C6.29504 24.1342 6.17808 23.8531 6.18871 23.5721L6.23124 20.5275C5.97605 20.1176 5.75276 19.6961 5.56136 19.2511L3.14767 17.7756C2.92438 17.6351 2.76488 17.4009 2.72235 17.1199C2.49906 15.7264 2.48843 14.2744 2.72235 12.8575C2.76488 12.5764 2.92438 12.3422 3.14767 12.2017L5.56136 10.7262Z" stroke="#313131" stroke-width="2" stroke-miterlimit="10" stroke-linecap="round" stroke-linejoin="round"/>
<path d="M13.6108 20.6094C16.4296 20.6094 18.7146 18.0929 18.7146 14.9886C18.7146 11.8843 16.4296 9.3678 13.6108 9.3678C10.792 9.3678 8.50696 11.8843 8.50696 14.9886C8.50696 18.0929 10.792 20.6094 13.6108 20.6094Z" stroke="#313131" stroke-width="2" stroke-miterlimit="10" stroke-linecap="round" stroke-linejoin="round"/>
</svg>
