<svg width="29" height="30" viewBox="0 0 29 30" fill="none" xmlns="http://www.w3.org/2000/svg">
<path d="M17.0939 23.7071V18.3588C17.0939 18.1224 17.0042 17.8957 16.8447 17.7285C16.6852 17.5613 16.4688 17.4674 16.2432 17.4674H12.8407C12.6151 17.4674 12.3987 17.5613 12.2392 17.7285C12.0797 17.8957 11.99 18.1224 11.99 18.3588V23.7071C11.99 23.9435 11.9004 24.1702 11.7409 24.3374C11.5814 24.5046 11.3651 24.5985 11.1395 24.5985L6.03629 24.5992C5.92458 24.5992 5.81395 24.5762 5.71073 24.5314C5.60752 24.4866 5.51373 24.4209 5.43473 24.3382C5.35573 24.2554 5.29306 24.1571 5.25031 24.049C5.20755 23.9408 5.18555 23.8249 5.18555 23.7078V13.4058C5.18555 13.2816 5.21031 13.1588 5.25825 13.0452C5.30619 12.9316 5.37625 12.8298 5.46393 12.7462L13.9697 4.64202C14.1263 4.49283 14.3303 4.41016 14.542 4.41016C14.7536 4.41015 14.9576 4.4928 15.1142 4.64198L23.6212 12.7462C23.7089 12.8298 23.7789 12.9316 23.8269 13.0452C23.8748 13.1588 23.8996 13.2816 23.8996 13.4058V23.7078C23.8996 23.8249 23.8776 23.9408 23.8348 24.049C23.7921 24.1571 23.7294 24.2554 23.6504 24.3382C23.5714 24.421 23.4776 24.4866 23.3744 24.5314C23.2712 24.5762 23.1606 24.5992 23.0489 24.5992L17.9444 24.5985C17.7188 24.5985 17.5025 24.5046 17.343 24.3374C17.1835 24.1702 17.0939 23.9435 17.0939 23.7071V23.7071Z" stroke="#313131" stroke-width="2" stroke-linecap="round" stroke-linejoin="round"/>
</svg>
