<svg width="28" height="29" viewBox="0 0 28 29" fill="none" xmlns="http://www.w3.org/2000/svg">
<path d="M13.5323 3.09543L4.95632 4.89277L3.24113 13.8794C3.21366 14.0233 3.22053 14.1721 3.26111 14.3125C3.30169 14.453 3.37473 14.5808 3.47376 14.6845L14.5802 26.3228C14.6592 26.4056 14.753 26.4713 14.8562 26.516C14.9594 26.5608 15.07 26.5839 15.1817 26.5839C15.2934 26.5839 15.404 26.5608 15.5072 26.516C15.6104 26.4713 15.7042 26.4056 15.7832 26.3228L25.4071 16.2381C25.4861 16.1553 25.5487 16.0571 25.5915 15.9489C25.6342 15.8408 25.6562 15.7249 25.6562 15.6078C25.6562 15.4907 25.6342 15.3748 25.5915 15.2667C25.5487 15.1585 25.4861 15.0603 25.4071 14.9775L14.3006 3.3392C14.2016 3.23544 14.0797 3.1589 13.9456 3.11637C13.8116 3.07385 13.6696 3.06666 13.5323 3.09543V3.09543Z" stroke="#9B9B9B" stroke-width="2" stroke-linecap="round" stroke-linejoin="round"/>
<path d="M9.42244 10.9085C10.1271 10.9085 10.6984 10.3099 10.6984 9.57143C10.6984 8.833 10.1271 8.23438 9.42244 8.23438C8.71775 8.23438 8.14648 8.833 8.14648 9.57143C8.14648 10.3099 8.71775 10.9085 9.42244 10.9085Z" fill="#9B9B9B"/>
</svg>
