<svg width="29" height="29" viewBox="0 0 29 29" fill="none" xmlns="http://www.w3.org/2000/svg">
<path d="M13.9737 3.09543L5.39773 4.89277L3.68253 13.8794C3.65507 14.0233 3.66193 14.1721 3.70252 14.3125C3.7431 14.453 3.81614 14.5808 3.91516 14.6845L15.0216 26.3228C15.1006 26.4056 15.1944 26.4713 15.2976 26.516C15.4008 26.5608 15.5114 26.5839 15.6231 26.5839C15.7348 26.5839 15.8454 26.5608 15.9486 26.516C16.0518 26.4713 16.1456 26.4056 16.2246 26.3228L25.8485 16.2381C25.9275 16.1553 25.9901 16.0571 26.0329 15.9489C26.0756 15.8408 26.0976 15.7249 26.0976 15.6078C26.0976 15.4907 26.0756 15.3748 26.0329 15.2667C25.9901 15.1585 25.9275 15.0603 25.8485 14.9775L14.742 3.3392C14.643 3.23544 14.5211 3.1589 14.387 3.11637C14.253 3.07385 14.111 3.06666 13.9737 3.09543V3.09543Z" stroke="#313131" stroke-width="2" stroke-linecap="round" stroke-linejoin="round"/>
<path d="M9.86385 10.9085C10.5685 10.9085 11.1398 10.3099 11.1398 9.57143C11.1398 8.833 10.5685 8.23438 9.86385 8.23438C9.15916 8.23438 8.58789 8.833 8.58789 9.57143C8.58789 10.3099 9.15916 10.9085 9.86385 10.9085Z" fill="#313131"/>
</svg>
