<svg width="28" height="29" viewBox="0 0 28 29" fill="none" xmlns="http://www.w3.org/2000/svg">
<path d="M9.35703 17.8275C12.4107 17.8275 14.8862 15.2334 14.8862 12.0335C14.8862 8.83364 12.4107 6.23961 9.35703 6.23961C6.30337 6.23961 3.82788 8.83364 3.82788 12.0335C3.82788 15.2334 6.30337 17.8275 9.35703 17.8275Z" stroke="#313131" stroke-width="2" stroke-miterlimit="10"/>
<path d="M16.525 6.45543C17.2855 6.2309 18.0831 6.17975 18.864 6.30543C19.645 6.4311 20.3912 6.73069 21.0523 7.184C21.7135 7.63731 22.2742 8.23382 22.6969 8.93336C23.1195 9.6329 23.3941 10.4192 23.5023 11.2393C23.6105 12.0595 23.5498 12.8944 23.3241 13.6878C23.0984 14.4813 22.7131 15.2149 22.1942 15.8391C21.6752 16.4634 21.0345 16.9639 20.3154 17.3069C19.5963 17.6498 18.8154 17.8274 18.0253 17.8275" stroke="#313131" stroke-width="2" stroke-linecap="round" stroke-linejoin="round"/>
<path d="M1.70084 21.9943C2.56438 20.7071 3.71078 19.6566 5.04326 18.9314C6.37574 18.2061 7.85518 17.8275 9.35667 17.8275C10.8582 17.8274 12.3376 18.2059 13.6702 18.931C15.0027 19.6561 16.1492 20.7066 17.0128 21.9936" stroke="#313131" stroke-width="2" stroke-linecap="round" stroke-linejoin="round"/>
<path d="M18.0253 17.8275C19.5269 17.8263 21.0067 18.2044 22.3393 18.9296C23.672 19.6548 24.8182 20.7058 25.6811 21.9936" stroke="#313131" stroke-width="2" stroke-linecap="round" stroke-linejoin="round"/>
</svg>
