<svg width="28" height="29" viewBox="0 0 28 29" fill="none" xmlns="http://www.w3.org/2000/svg">
<path d="M9.84751 18.166C12.9012 18.166 15.3767 15.5719 15.3767 12.372C15.3767 9.17215 12.9012 6.57812 9.84751 6.57812C6.79384 6.57812 4.31836 9.17215 4.31836 12.372C4.31836 15.5719 6.79384 18.166 9.84751 18.166Z" stroke="#9B9B9B" stroke-width="2" stroke-miterlimit="10"/>
<path d="M17.0156 6.79527C17.7761 6.57075 18.5737 6.5196 19.3546 6.64527C20.1356 6.77095 20.8818 7.07053 21.5429 7.52384C22.2041 7.97715 22.7648 8.57366 23.1875 9.2732C23.6101 9.97274 23.8847 10.7591 23.9929 11.5792C24.1011 12.3993 24.0404 13.2342 23.8147 14.0277C23.589 14.8211 23.2037 15.5547 22.6848 16.179C22.1658 16.8032 21.5251 17.3037 20.806 17.6467C20.0869 17.9897 19.306 18.1672 18.5159 18.1673" stroke="#9B9B9B" stroke-width="2" stroke-linecap="round" stroke-linejoin="round"/>
<path d="M2.19141 22.3348C3.05495 21.0476 4.20135 19.9971 5.53383 19.2719C6.86631 18.5467 8.34575 18.168 9.84724 18.168C11.3487 18.1679 12.8282 18.5464 14.1607 19.2715C15.4933 19.9966 16.6398 21.0471 17.5034 22.3342" stroke="#9B9B9B" stroke-width="2" stroke-linecap="round" stroke-linejoin="round"/>
<path d="M18.5156 18.168C20.0173 18.1668 21.497 18.5449 22.8297 19.2701C24.1623 19.9953 25.3086 21.0463 26.1714 22.3342" stroke="#9B9B9B" stroke-width="2" stroke-linecap="round" stroke-linejoin="round"/>
</svg>
