<svg width="28" height="29" viewBox="0 0 28 29" fill="none" xmlns="http://www.w3.org/2000/svg">
<path d="M14.1002 25.264C19.7378 25.264 24.3079 20.4751 24.3079 14.5676C24.3079 8.66007 19.7378 3.87109 14.1002 3.87109C8.46271 3.87109 3.89258 8.66007 3.89258 14.5676C3.89258 20.4751 8.46271 25.264 14.1002 25.264Z" stroke="#9B9B9B" stroke-width="2" stroke-miterlimit="10"/>
<path d="M14.1009 18.1325C16.4498 18.1325 18.354 16.1371 18.354 13.6756C18.354 11.2142 16.4498 9.21875 14.1009 9.21875C11.7519 9.21875 9.84766 11.2142 9.84766 13.6756C9.84766 16.1371 11.7519 18.1325 14.1009 18.1325Z" stroke="#9B9B9B" stroke-width="2" stroke-miterlimit="10"/>
<path d="M7.27344 22.5199C7.91419 21.1998 8.89106 20.0913 10.0959 19.317C11.3007 18.5427 12.6865 18.1328 14.0999 18.1328C15.5133 18.1328 16.8991 18.5426 18.1039 19.3169C19.3088 20.0912 20.2856 21.1998 20.9264 22.5199" stroke="#9B9B9B" stroke-width="2" stroke-linecap="round" stroke-linejoin="round"/>
</svg>
