<svg width="28" height="29" viewBox="0 0 28 29" fill="none" xmlns="http://www.w3.org/2000/svg">
<path d="M13.6103 24.9584C19.2478 24.9584 23.8179 20.1695 23.8179 14.262C23.8179 8.35447 19.2478 3.56549 13.6103 3.56549C7.97272 3.56549 3.40259 8.35447 3.40259 14.262C3.40259 20.1695 7.97272 24.9584 13.6103 24.9584Z" stroke="#313131" stroke-width="2" stroke-miterlimit="10"/>
<path d="M13.6102 17.8275C15.9592 17.8275 17.8634 15.8321 17.8634 13.3706C17.8634 10.9091 15.9592 8.91373 13.6102 8.91373C11.2612 8.91373 9.357 10.9091 9.357 13.3706C9.357 15.8321 11.2612 17.8275 13.6102 17.8275Z" stroke="#313131" stroke-width="2" stroke-miterlimit="10"/>
<path d="M6.78379 22.2146C7.42455 20.8945 8.40141 19.7859 9.60624 19.0116C10.8111 18.2373 12.1969 17.8275 13.6103 17.8275C15.0236 17.8275 16.4094 18.2373 17.6143 19.0116C18.8191 19.7859 19.796 20.8944 20.4367 22.2145" stroke="#313131" stroke-width="2" stroke-linecap="round" stroke-linejoin="round"/>
</svg>
