<svg width="29" height="30" viewBox="0 0 29 30" fill="none" xmlns="http://www.w3.org/2000/svg">
<path d="M20.506 4.89575L16.0442 9.57121L16.6457 12.7227L19.6532 13.353L24.115 8.67753L24.1154 8.67733C24.6677 10.0434 24.7997 11.5559 24.4932 13.0043C24.1868 14.4527 23.457 15.765 22.4054 16.7584C21.3539 17.7518 20.033 18.377 18.6265 18.5469C17.22 18.7167 15.798 18.4229 14.5583 17.7062L14.5585 17.706L8.59485 24.9408C8.11617 25.4419 7.46723 25.7232 6.79067 25.723C6.11411 25.7228 5.46532 25.4411 4.98692 24.9398C4.50852 24.4385 4.23967 23.7586 4.23948 23.0496C4.23929 22.3407 4.50776 21.6607 4.98589 21.1591L11.89 14.9099L11.8899 14.91C11.206 13.611 10.9256 12.1209 11.0877 10.647C11.2498 9.17322 11.8464 7.78902 12.7944 6.68714C13.7424 5.58525 14.9947 4.82051 16.3769 4.49934C17.7592 4.17818 19.2025 4.31659 20.5062 4.8953L20.506 4.89575Z" stroke="#313131" stroke-width="2" stroke-linecap="round" stroke-linejoin="round"/>
</svg>
