<svg width="28" height="30" viewBox="0 0 28 30" fill="none" xmlns="http://www.w3.org/2000/svg">
<path d="M20.0673 4.8976L15.6055 9.57306L16.207 12.7245L19.2145 13.3548L23.6763 8.67937L23.6767 8.67918C24.229 10.0452 24.361 11.5577 24.0546 13.0062C23.7481 14.4546 23.0183 15.7668 21.9667 16.7602C20.9152 17.7536 19.5943 18.3788 18.1878 18.5487C16.7813 18.7186 15.3593 18.4247 14.1196 17.7081L14.1198 17.7078L8.15615 24.9427C7.67748 25.4437 7.02853 25.725 6.35197 25.7248C5.67541 25.7246 5.02662 25.4429 4.54822 24.9416C4.06982 24.4403 3.80097 23.7604 3.80078 23.0515C3.80059 22.3425 4.06907 21.6625 4.54719 21.1609L11.4513 14.9118L11.4512 14.9119C10.7673 13.6128 10.4869 12.1227 10.649 10.6489C10.8111 9.17506 11.4077 7.79087 12.3557 6.68899C13.3037 5.5871 14.556 4.82235 15.9382 4.50119C17.3205 4.18003 18.7638 4.31844 20.0675 4.89714L20.0673 4.8976Z" stroke="#9B9B9B" stroke-width="2" stroke-linecap="round" stroke-linejoin="round"/>
</svg>
